<?xml version="1.0" encoding="iso-8859-1"?>
<!-- Generator: Adobe Illustrator 19.0.0, SVG Export Plug-In . SVG Version: 6.00 Build 0)  -->
<svg version="1.1" id="Capa_1" xmlns="http://www.w3.org/2000/svg" xmlns:xlink="http://www.w3.org/1999/xlink" x="0px" y="0px"
	 viewBox="0 0 481.891 481.891" style="enable-background:new 0 0 481.891 481.891;" xml:space="preserve">
<path style="fill:#ED6262;" d="M468.334,141.655C468.123,33.081,404.108,6.126,358.826,0.66
	c-45.237-5.466-89.555,23.552-98.605,68.201c-13.463,66.379,20.736,161.19,28.1,176.248c12.725,25.992,15.209,56.169,7.605,84.073
	c-12.198,44.725-8.177,88.215-8.177,88.215c7.62,84.616,88.847,61.651,88.847,61.651c86.302-4.111,66.846-116.646,66.846-116.646
	c-7.59-40.523,8.96-123.678,17.784-162.967C465.457,180.447,468.364,161.111,468.334,141.655z"/>
<path style="fill:#E95353;" d="M358.811,0.66c-0.151-0.015-0.316,0-0.467-0.015c-8.599,2.168-14.878,9.999-14.502,19.471
	c0.663,10.285,9.848,18.161,20.344,18.161h44.408c9.186,0,16.188,7.65,15.962,16.836c0,0.211,0,0.211,0,0.437c0,0,0,0,0,0.226
	c0.226,9.186-6.776,16.836-15.962,16.836h-40.689c-10.933,0-19.682,9.412-19.034,20.344c0.437,10.285,9.833,18.161,20.119,18.161
	h43.625c8.749,0,16.836,6.626,16.836,18.372c0,8.749-7.213,15.962-15.962,15.962h-52.811c-10.933,0-19.682,9.186-19.245,20.344
	c0.663,10.285,9.833,17.935,20.344,17.935h51.351c8.523,0,15.752,7.439,15.089,16.188c0,11.249-7.59,17.498-15.962,17.498h-52.555
	c-10.496,0-19.245,8.523-19.245,19.245c0,10.285,8.312,18.808,18.598,19.034h36.232c10.496,0,19.682,7.876,20.344,18.146
	c0.437,11.159-8.312,20.134-19.245,20.134l-32.723,0.211c-10.933,0-19.682,8.975-19.245,20.119
	c0.648,10.074,9.517,17.739,19.546,18.04h32.557c10.33,0,19.561,7.755,20.179,18.086c0.497,11.083-8.252,20.194-19.2,20.194h-34.906
	c-10.677,0.301-19.17,9.261-18.748,20.239c0.663,10.285,9.848,17.935,20.344,17.935h36.879c15.902,0,15.947,17.272,15.962,17.272
	c0,0.211,0,0.211,0,0.211c0.226,9.412-6.776,17.062-15.962,17.062h-33.16c-10.933,0-19.682,9.186-19.034,20.119
	c0.376,9.095,7.575,15.887,16.158,17.634c6.957-0.843,11.535-2.093,11.535-2.093c86.302-4.126,66.846-116.646,66.846-116.646
	c-7.59-40.523,8.96-123.678,17.784-162.967c4.262-18.974,7.168-38.31,7.123-57.766C468.123,33.081,404.108,6.126,358.811,0.66z"/>
<path style="fill:#E5E5E5;" d="M356.266,97.563c0,0-13.538-54.995-35.539-35.539c0,0,20.314,27.076,13.538,43.144
	c0,0-129.446,114.221-19.456,238.607l13.538-14.381c0,0-87.989-91.377,19.456-217.449c0,0,144.685,92.22,60.07,217.449l12.695,10.15
	C420.567,339.543,531.415,205.023,356.266,97.563z"/>
<path style="fill:#ED6262;" d="M193.585,245.109c0.196-0.392,0.376-0.768,0.572-1.16c0,0,42.451-101.466,27.528-175.074
	c-9.05-44.649-53.368-73.668-98.605-68.201C77.783,6.126,13.768,33.081,13.557,141.655c-0.03,19.456,2.861,38.792,7.123,57.766
	c8.824,39.304,25.389,122.458,17.784,162.967c0,0-19.456,112.535,66.846,116.646c0,0,81.227,22.965,88.847-61.651
	c0,0,4.021-43.475-8.177-88.215C178.361,301.264,180.861,271.086,193.585,245.109z"/>
<path style="fill:#E95353;" d="M123.08,0.66c0.151-0.015,0.316,0,0.467-0.015c8.599,2.168,14.878,9.999,14.502,19.471
	c-0.663,10.285-9.848,18.161-20.344,18.161H73.296c-8.463,0-15.962,6.43-15.962,17.272c0,0,0,0,0,0.226
	c-0.226,9.186,6.776,16.836,15.962,16.836h40.689c10.933,0,19.682,9.412,19.034,20.344c-0.437,10.285-9.848,18.161-20.134,18.161
	H69.26c-8.749,0-16.836,6.626-16.836,18.372c0,8.749,7.213,15.962,15.962,15.962h52.811c10.933,0,19.682,9.186,19.245,20.344
	c-0.648,10.285-9.848,17.935-20.344,17.935H68.748c-8.087,0-15.089,5.632-15.089,17.498c0,8.96,7.213,16.188,15.962,16.188h52.555
	c10.496,0,19.245,8.523,19.245,19.245c0,10.285-8.312,18.808-18.598,19.034H86.608c-10.496,0-19.682,7.876-20.344,18.146
	c-0.437,11.159,8.312,20.134,19.245,20.134l32.723,0.211c10.933,0,19.682,8.975,19.245,20.119
	c-0.648,10.074-9.517,17.739-19.546,18.04H85.373c-10.33,0-19.561,7.755-20.179,18.086c-0.497,11.083,8.252,20.194,19.2,20.194
	H119.3c10.677,0.301,19.17,9.261,18.748,20.239c-0.663,10.285-9.848,17.935-20.344,17.935H80.825
	c-9.186,0-16.188,7.876-15.962,17.062c0,0.211,0,0.211,0,0.211c0,0.211,0,0.211,0,0.211c-0.226,9.412,6.776,17.062,15.962,17.062
	h33.16c10.933,0,19.682,9.186,19.034,20.119c-0.376,9.095-7.575,15.887-16.158,17.634c-6.957-0.843-11.535-2.093-11.535-2.093
	C19.024,474.877,38.48,362.357,38.48,362.357c7.59-40.523-8.96-123.678-17.784-162.967c-4.262-18.974-7.153-38.31-7.123-57.766
	C13.768,33.081,77.783,6.126,123.08,0.66z"/>
<path style="fill:#E5E5E5;" d="M147.626,105.183c-6.776-16.068,13.538-43.144,13.538-43.144
	c-22.001-19.456-35.539,35.539-35.539,35.539c-175.149,107.46-64.301,241.98-64.301,241.98l12.695-10.15
	c-84.616-125.229,60.07-217.449,60.07-217.449c107.46,126.072,19.456,217.449,19.456,217.449l13.538,14.381
	C277.072,219.404,147.626,105.183,147.626,105.183z"/>
<g>
</g>
<g>
</g>
<g>
</g>
<g>
</g>
<g>
</g>
<g>
</g>
<g>
</g>
<g>
</g>
<g>
</g>
<g>
</g>
<g>
</g>
<g>
</g>
<g>
</g>
<g>
</g>
<g>
</g>
</svg>
