<?xml version="1.0" encoding="iso-8859-1"?>
<svg xmlns="http://www.w3.org/2000/svg" xmlns:xlink="http://www.w3.org/1999/xlink" version="1.1" viewBox="0 0 463 463" enable-background="new 0 0 463 463" width="512px" height="512px">
  <path d="m325.318,130.608c-18.233-39.309-46.489-77.998-86.318-118.197v-4.911c0-4.142-3.358-7.5-7.5-7.5s-7.5,3.358-7.5,7.5v4.911c-39.829,40.198-68.085,78.888-86.318,118.197-17.253,37.197-25.652,75.369-25.68,116.689 0,0.009 0,0.018 0,0.027 0,0.06-0.002,0.118-0.002,0.178 0,67.159 25.676,115.9 47.215,144.964 20.472,27.623 46.279,48.624 64.785,53.472v9.562c0,4.142 3.358,7.5 7.5,7.5s7.5-3.358 7.5-7.5v-9.562c18.506-4.848 44.313-25.849 64.785-53.472 21.539-29.064 47.215-77.805 47.215-144.964 0-41.398-8.401-79.635-25.682-116.894zm-27.818,244.765c-6.673,3.415-13.716,6.664-20.556,9.806-14.209,6.527-27.998,12.869-37.944,20.564v-38.243c0-12.497 22.414-22.86 44.09-32.883 15.191-7.024 31.597-14.616 44.493-24.519-7.498,26.946-18.968,48.768-30.083,65.275zm-168.156-94.318c13.449,12.388 32.697,21.3 50.566,29.562 21.676,10.023 44.09,20.386 44.09,32.883v38.111c-9.915-7.71-23.646-14.067-37.795-20.609-14.376-6.647-29.217-13.519-40.54-21.922-7.198-16.634-13.193-35.99-16.321-58.025zm11.712-118.866c11.692,7.863 25.454,14.232 38.854,20.428 21.676,10.023 44.09,20.386 44.09,32.883v38.111c-9.915-7.71-23.646-14.067-37.795-20.609-21.992-10.169-44.709-20.676-54.463-36.083 2.267-11.726 5.363-23.283 9.314-34.73zm23.543-50.791c5.107,2.499 10.273,4.89 15.31,7.219 21.677,10.023 44.091,20.386 44.091,32.883v38.111c-9.915-7.71-23.646-14.067-37.795-20.609-14.032-6.488-28.48-13.175-39.675-21.283 5.016-12.179 11.023-24.261 18.069-36.321zm33.59-48.053c13.899,7.091 25.811,14.93 25.811,24.155v38.111c-9.915-7.71-23.646-14.067-37.795-20.609-4.525-2.092-9.151-4.238-13.703-6.444 7.565-11.712 16.115-23.427 25.687-35.213zm103.36,53.577c-7.911,4.282-16.44,8.237-24.754,12.08-14.149,6.542-27.88,12.898-37.795,20.609v-38.111c0-11.577 19.238-21.324 39.303-30.664 8.796,12.043 16.531,24.048 23.246,36.086zm21.74,49.266c-11.622,10.676-29.318,18.873-46.494,26.814-14.149,6.542-27.88,12.898-37.795,20.609v-38.111c0-12.497 22.414-22.86 44.09-32.883 8.482-3.922 17.185-7.957 25.444-12.419 5.89,11.914 10.797,23.887 14.755,35.99zm10.828,49.082c-7.207,18.549-33.799,30.855-57.322,41.732-14.149,6.542-27.88,12.898-37.795,20.609v-38.111c0-12.497 22.414-22.86 44.09-32.883 15.821-7.316 32.055-14.838 44.792-24.708 2.824,10.975 4.892,22.078 6.235,33.361zm-95.117-129.659v-51.632c10.993,11.645 20.99,23.17 30.023,34.637-11.319,5.32-21.939,10.708-30.023,16.995zm-15-24.069c-4.761-3.71-10.267-6.979-15.927-9.971 5.057-5.839 10.364-11.7 15.927-17.593v27.564zm-44.09,185.075c21.676,10.022 44.09,20.386 44.09,32.883v38.111c-9.915-7.71-23.646-14.067-37.795-20.609-28.142-13.012-57.232-26.468-59.203-49.864 0.013-10.399 0.591-20.616 1.743-30.69 13.556,12.773 33.263,21.891 51.165,30.169zm156.09,.885c0,11.507-0.809,22.43-2.242,32.775-0.087,0.161-0.174,0.32-0.251,0.489-7.963,17.695-33.862,29.67-56.713,40.236-14.149,6.542-27.88,12.898-37.794,20.608v-38.11c0-12.497 22.414-22.86 44.09-32.883 18.739-8.665 39.226-18.148 52.775-31.745 0.087,2.864 0.135,5.739 0.135,8.63zm-164.734,136.033c-4.155-5.607-8.474-12.009-12.714-19.17 6.984,3.602 14.225,6.955 21.357,10.253 21.677,10.022 44.091,20.385 44.091,32.882v22.698c-12.423-4.925-33.034-20.082-52.734-46.663zm67.83,46.624c1.375-10.499 18.665-19.527 37.223-28.17-14.416,15.268-28.036,24.502-37.223,28.17z" fill="#D80027"/>
</svg>
